<svg width="88" height="88" viewBox="0 0 88 88" fill="none" xmlns="http://www.w3.org/2000/svg">
<path d="M60.2095 18.5385C59.5505 20.9465 59.0435 22.9996 58.4225 25.0147C57.3833 28.4366 56.2046 31.7698 53.784 34.5453C51.3253 37.3588 48.2583 38.4234 44.7477 37.3968C42.5932 36.7632 40.6161 35.5465 38.601 34.5199C37.8152 34.1144 37.1308 33.4807 36.0536 32.7076C36.4591 34.634 36.8013 36.1422 37.0801 37.663C37.7772 41.3764 38.6263 45.0644 39.0699 48.8031C39.7036 53.9232 37.1182 56.9903 31.9473 57.4465C29.9195 57.6239 27.8284 57.3071 25.7626 57.193C25.1416 57.155 24.5332 57.0283 23.7982 56.9269C25.6992 59.9686 27.5496 62.8328 29.2732 65.7477C33.2907 72.5535 28.7662 76.6977 23.3166 77.4075C21.8591 77.5976 20.3256 77.4328 18.8428 77.2934C17.8542 77.1667 17.0431 76.533 17.1952 75.4431C17.322 74.4545 18.2091 74.1757 19.147 74.1503C20.0721 74.1123 21.01 74.1377 21.9098 73.9983C22.9617 73.8335 24.0263 73.6561 25.0275 73.2885C27.8411 72.2493 28.6775 70.5003 27.4862 67.7375C26.6497 65.7858 25.5218 63.9481 24.4319 62.1231C23.418 60.4248 22.3154 58.7646 21.2128 57.1043C20.6551 56.2425 20.1228 55.3554 20.6551 54.3415C21.2635 53.1755 22.4167 53.2642 23.4813 53.3403C24.8374 53.429 26.1681 53.7205 27.5242 53.7331C29.2352 53.7712 30.9588 53.7712 32.6317 53.543C34.9003 53.2262 35.7874 52.2377 35.7747 49.9437C35.7621 47.7512 35.6227 45.508 35.2551 43.3408C34.444 38.7022 33.4808 34.1144 32.5049 29.5139C32.2768 28.4239 32.2895 27.4987 33.24 26.8524C34.1398 26.2314 35.0016 26.6116 35.8001 27.2073C37.2195 28.2718 38.6136 29.4125 40.0838 30.401C41.3765 31.2628 42.7199 32.1246 44.1393 32.733C47.9287 34.3679 50.4635 33.5567 52.8334 30.1982C54.6204 27.6762 55.8624 24.888 56.7496 21.9477C57.3959 19.8312 57.9029 17.6767 58.4605 15.5475C58.752 14.4196 59.0562 13.2536 60.463 13.0888C61.7937 12.9494 62.5034 13.9126 63.1498 14.8885C63.4159 15.3067 63.6187 15.763 63.8341 16.2066C64.2524 17.1064 64.734 17.9935 65.0635 18.9314C67.5602 25.8892 73.0098 28.2212 79.8156 28.3099C81.0703 28.3225 82.3376 27.9423 83.5923 27.7015C84.2133 27.5875 84.8217 27.2833 85.4427 27.2453C85.8862 27.2073 86.5579 27.3467 86.7354 27.6508C86.9382 27.9803 86.7861 28.6394 86.6467 29.0323C86.3298 29.8814 85.468 30.5911 84.6822 30.9206C83.1234 31.567 81.4631 32.1373 79.8029 32.3021C76.1276 32.6823 72.5663 31.9345 69.1317 30.5531C66.2041 29.3744 64.227 27.1692 62.8329 24.4317C61.9458 22.6321 61.2107 20.7817 60.2095 18.5385Z" fill="#81ADC8"/>
</svg>
